# Wavefront Obj file
# 
# verts: 139 uv-s: 198
mtllib stone_2.1.mtl

g stone_2

v 0.173649 -0.069088 0.667591
v 0.094574 -0.146134 0.681050
v -0.378079 -0.227627 0.629222
v 0.142651 -0.194901 0.667549
v -0.525032 -0.094833 0.556790
v -0.015664 -0.334303 0.609654
v 0.421499 0.106062 0.536038
v -0.296897 -0.409939 0.569954
v 0.132174 -0.390632 0.590605
v -0.463325 0.022001 0.515877
v 0.258481 -0.423528 0.521160
v 0.173241 0.062588 0.618631
v -0.453104 -0.238504 0.574207
v 0.031415 -0.331681 0.607661
v -0.234250 -0.429814 0.516084
v -0.292823 -0.426530 0.537572
v -0.271085 0.159714 0.501814
v -0.678368 -0.005581 0.458523
v -0.453954 0.182965 0.449867
v -0.059480 0.222827 0.515935
v -0.360123 0.379353 0.403186
v -0.660616 0.232586 0.413072
v -0.055389 -0.376234 0.465644
v -0.515810 0.319231 0.399066
v 0.641277 0.158591 0.409748
v -0.445210 -0.347415 0.470023
v -0.691394 0.077563 0.460548
v -0.735736 0.034074 0.382291
v 0.081635 -0.426083 0.243271
v -0.317406 0.446493 0.358491
v -0.712588 0.290605 0.354542
v -0.500947 0.499954 0.328250
v -0.640690 0.450334 0.324173
v -0.742340 0.300836 0.292614
v 0.043106 -0.404062 0.359845
v 0.668092 -0.205912 0.289688
v 0.649047 0.215613 0.365964
v 0.407372 -0.472275 0.388660
v -0.120042 -0.393934 0.310808
v 0.760868 -0.026272 0.280119
v 0.741416 0.117003 0.333457
v 0.631971 0.444859 0.082932
v -0.742780 0.165526 0.359496
v 0.816768 0.061081 0.173849
v 0.586463 0.299621 0.334829
v -0.591533 -0.269546 0.288248
v 0.734100 -0.159634 0.230659
v 0.549734 -0.508464 0.226358
v 0.578331 0.422288 0.214018
v -0.715499 -0.180362 0.244199
v -0.405551 0.617135 0.221980
v 0.341309 -0.478894 0.155269
v -0.629436 0.596525 0.177216
v 0.019385 0.223788 0.502845
v -0.354882 0.672164 0.111932
v -0.567854 0.665201 0.134794
v -0.028398 0.667770 0.116950
v -0.770093 0.351069 -0.057644
v 0.458429 0.681921 -0.151626
v -0.752068 -0.151095 0.162923
v -0.717219 -0.201935 0.170528
v 0.142027 0.675058 0.075843
v 0.733361 -0.174869 -0.022242
v -0.754049 0.427697 -0.074826
v 0.653484 -0.423386 0.141218
v -0.182421 -0.370153 0.233823
v -0.601774 0.684912 0.068699
v 0.304922 0.631564 0.085807
v -0.669694 0.609034 -0.050979
v 0.846011 0.159269 -0.063628
v -0.662864 -0.160771 -0.037430
v -0.610838 0.696698 -0.041983
v 0.775887 0.177028 0.152130
v -0.695048 0.524031 -0.127097
v -0.760533 0.356683 -0.158719
v -0.771443 -0.077769 -0.147280
v -0.761455 -0.053356 -0.318916
v 0.143654 -0.345624 -0.148287
v 0.832791 0.145260 -0.268665
v 0.621118 -0.453585 0.100188
v 0.777620 0.397779 -0.199221
v -0.500405 0.738858 -0.164970
v 0.160458 0.718252 -0.055354
v -0.544986 0.597039 -0.259173
v -0.382702 0.773317 -0.225477
v 0.736964 -0.157400 -0.385251
v 0.693449 -0.251235 -0.351790
v 0.719194 0.510107 -0.260595
v -0.299428 -0.140647 -0.472512
v 0.268430 -0.266299 -0.365407
v 0.463553 0.720489 -0.270211
v 0.597892 0.625217 -0.234544
v 0.137737 0.746508 -0.313047
v 0.811976 0.065723 -0.182439
v -0.414010 0.539508 -0.457454
v 0.482848 0.684590 -0.325513
v 0.614841 -0.253296 -0.391408
v -0.054840 -0.195875 -0.498548
v -0.787039 0.007347 -0.379210
v -0.368138 0.748697 -0.335863
v 0.371608 0.737310 -0.303348
v 0.783183 0.372149 -0.383801
v 0.769149 0.337103 -0.423848
v -0.763062 0.061766 -0.405930
v 0.555947 0.544587 -0.401529
v -0.416282 0.635943 -0.401575
v 0.805927 0.259285 -0.404084
v -0.299733 0.581335 -0.467711
v 0.727330 -0.126558 -0.476763
v -0.024226 0.656803 -0.401847
v -0.541493 0.307679 -0.478967
v -0.019179 -0.158863 -0.603033
v -0.419249 0.404054 -0.533014
v -0.330684 0.452133 -0.529845
v -0.725181 -0.026427 -0.470550
v 0.571411 -0.178086 -0.588190
v -0.682409 0.004065 -0.551677
v 0.657619 -0.208046 -0.474826
v -0.166369 0.383138 -0.559222
v -0.421634 0.159824 -0.579234
v -0.488338 0.245549 -0.556637
v 0.064895 -0.200766 -0.529452
v 0.706529 -0.040748 -0.572190
v 0.660561 -0.047453 -0.628483
v 0.110214 0.422969 -0.562806
v 0.670122 -0.121681 -0.591682
v -0.008011 0.146560 -0.627360
v -0.393889 -0.081988 -0.564427
v -0.495695 -0.009797 -0.630874
v 0.318978 0.302388 -0.602303
v -0.365732 0.005570 -0.678776
v 0.211774 0.089892 -0.655649
v 0.588747 -0.137814 -0.657653
v -0.248140 0.165619 -0.634134
v 0.486827 -0.068515 -0.707462
v 0.581652 -0.059866 -0.674664
v 0.046361 -0.101385 -0.688044
v 0.180266 -0.096644 -0.702612
v -0.163063 -0.043334 -0.686689
# 139 positions

vt 0.637793 0.519462
vt 0.648719 0.505608
vt 0.616910 0.502765
vt 0.733066 0.626037
vt 0.673071 0.652424
vt 0.557086 0.438674
vt 0.581568 0.505823
vt 0.638456 0.703915
vt 0.690214 0.525375
vt 0.700253 0.495679
vt 0.680439 0.678412
vt 0.693228 0.539546
vt 0.599700 0.691533
vt 0.705572 0.455390
vt 0.210075 0.011487
vt 0.136805 0.040402
vt 0.152606 0.050928
vt 0.528177 0.553333
vt 0.532809 0.576650
vt 0.615754 0.759358
vt 0.553953 0.637686
vt 0.204623 0.055488
vt 0.139362 0.047993
vt 0.097456 0.068133
vt 0.588002 0.763982
vt 0.918999 0.177520
vt 0.962805 0.190389
vt 0.974225 0.134225
vt 0.547812 0.694572
vt 0.484506 0.670601
vt 0.528684 0.374773
vt 0.536419 0.759808
vt 0.223244 0.010000
vt 0.935770 0.305175
vt 0.505416 0.717575
vt 0.714867 0.398857
vt 0.630974 0.331350
vt 0.458734 0.659802
vt 0.577247 0.313812
vt 0.237693 0.082612
vt 0.256215 0.014023
vt 0.191988 0.102762
vt 0.482392 0.388951
vt 0.861810 0.264487
vt 0.838485 0.274730
vt 0.859838 0.294553
vt 0.253234 0.115218
vt 0.295201 0.030434
vt 0.343321 0.064455
vt 0.828427 0.314462
vt 0.794519 0.327937
vt 0.508496 0.370536
vt 0.462836 0.761543
vt 0.515349 0.780986
vt 0.444756 0.718231
vt 0.010925 0.143132
vt 0.055144 0.125447
vt 0.532346 0.335478
vt 0.176427 0.127855
vt 0.035982 0.228489
vt 0.748227 0.352300
vt 0.801124 0.346569
vt 0.393542 0.692183
vt 0.566905 0.157556
vt 0.529647 0.117144
vt 0.523747 0.164465
vt 0.723134 0.338295
vt 0.724746 0.412368
vt 0.429190 0.388140
vt 0.016958 0.165917
vt 0.485704 0.214555
vt 0.515463 0.208597
vt 0.554731 0.976587
vt 0.591156 0.933695
vt 0.547457 0.898569
vt 0.534083 0.076743
vt 0.638790 0.056519
vt 0.601349 0.037606
vt 0.827215 0.445635
vt 0.390005 0.107163
vt 0.508943 0.978169
vt 0.586540 0.128528
vt 0.935567 0.333437
vt 0.332338 0.132217
vt 0.355070 0.575009
vt 0.447746 0.313610
vt 0.355070 0.472389
vt 0.524478 0.917043
vt 0.498312 0.296671
vt 0.411386 0.145015
vt 0.424652 0.135754
vt 0.951041 0.323698
vt 0.580316 0.248084
vt 0.610233 0.899013
vt 0.705014 0.910624
vt 0.638102 0.165399
vt 0.539382 0.877862
vt 0.950569 0.422715
vt 0.279950 0.230366
vt 0.899627 0.976587
vt 0.854958 0.844603
vt 0.805988 0.913550
vt 0.756460 0.901937
vt 0.654291 0.204770
vt 0.702610 0.122696
vt 0.810167 0.457743
vt 0.714017 0.455995
vt 0.727957 0.487433
vt 0.757012 0.475605
vt 0.764876 0.862675
vt 0.613355 0.797855
vt 0.963124 0.470603
vt 0.010000 0.317039
vt 0.578780 0.810833
vt 0.788573 0.484463
vt 0.540581 0.844534
vt 0.154110 0.346353
vt 0.722642 0.538592
vt 0.918797 0.932046
vt 0.899037 0.829624
vt 0.835920 0.470417
vt 0.945496 0.831678
vt 0.685594 0.195451
vt 0.951759 0.490202
vt 0.444812 0.284768
vt 0.024353 0.363705
vt 0.319537 0.295837
vt 0.746815 0.154353
vt 0.734426 0.097847
vt 0.675931 0.290681
vt 0.733579 0.186447
vt 0.653812 0.314897
vt 0.775459 0.543923
vt 0.942702 0.501860
vt 0.857972 0.812182
vt 0.878748 0.576970
vt 0.262716 0.350063
vt 0.420990 0.297518
vt 0.835113 0.798707
vt 0.619274 0.768016
vt 0.869432 0.798531
vt 0.766434 0.787163
vt 0.806566 0.610119
vt 0.731673 0.603182
vt 0.227818 0.344019
vt 0.990000 0.801134
vt 0.773902 0.602458
vt 0.059246 0.606869
vt 0.103677 0.566740
vt 0.089569 0.460531
vt 0.703184 0.295276
vt 0.047465 0.675739
vt 0.147472 0.492786
vt 0.130766 0.453684
vt 0.059246 0.713056
vt 0.177218 0.619603
vt 0.103407 0.741485
vt 0.971630 0.511730
vt 0.133481 0.822394
vt 0.436224 0.325689
vt 0.753599 0.170817
vt 0.739254 0.287291
vt 0.150892 0.818393
vt 0.163210 0.460630
vt 0.974225 0.541763
vt 0.202437 0.685236
vt 0.189760 0.491841
vt 0.411549 0.361821
vt 0.239587 0.375199
vt 0.693810 0.324662
vt 0.292365 0.775205
vt 0.235114 0.430483
vt 0.207218 0.469591
vt 0.256157 0.456524
vt 0.282818 0.797439
vt 0.127390 0.378831
vt 0.756297 0.299751
vt 0.202474 0.542226
vt 0.735531 0.313610
vt 0.335358 0.408467
vt 0.278666 0.480170
vt 0.417923 0.385339
vt 0.272122 0.531893
vt 0.334994 0.469791
vt 0.038118 0.389214
vt 0.096409 0.407085
vt 0.270298 0.666996
vt 0.264609 0.600939
vt 0.445041 0.368625
vt 0.311511 0.783609
vt 0.301233 0.810040
vt 0.324028 0.509390
vt 0.296988 0.407085
vt 0.328720 0.669583
vt 0.328924 0.566966
vt 0.258174 0.403556
vt 0.300143 0.752355
vt 0.337336 0.624499
# 198 texture coordinates

vn 0.307625 0.142192 0.940823
vn -0.129657 0.157691 0.978940
vn -0.176610 -0.086905 0.980437
vn 0.462023 -0.231188 0.856205
vn -0.247926 0.270594 0.930221
vn 0.153345 -0.779081 0.607879
vn 0.282055 0.450386 0.847111
vn -0.154630 -0.459295 0.874722
vn -0.126464 -0.868386 0.479493
vn -0.156675 0.357456 0.920694
vn 0.441539 -0.499483 0.745359
vn -0.076550 0.411772 0.908066
vn -0.683191 -0.454355 0.571674
vn -0.163587 -0.832820 0.528820
vn 0.155962 -0.985540 0.066232
vn -0.275073 -0.933911 -0.228355
vn -0.177003 0.339415 0.923833
vn -0.737397 -0.374247 0.562303
vn -0.148247 0.338940 0.929055
vn -0.077307 0.464039 0.882435
vn -0.120324 0.413328 0.902597
vn -0.183534 0.355379 0.916527
vn 0.115814 -0.981470 0.152658
vn -0.158920 0.343276 0.925692
vn 0.512068 0.065601 0.856436
vn -0.653561 -0.655991 0.377537
vn -0.437930 0.245060 0.864964
vn -0.929829 -0.177785 0.322196
vn -0.175190 -0.980621 0.087702
vn 0.065842 0.623848 0.778768
vn -0.687160 0.328393 0.648051
vn -0.123725 0.588254 0.799155
vn -0.414397 0.522940 0.744854
vn -0.921777 0.326402 0.209256
vn -0.217373 -0.951750 0.216610
vn 0.631479 -0.327422 0.702872
vn 0.693167 0.549412 0.466547
vn 0.268782 -0.821841 0.502328
vn -0.007358 -0.999727 -0.022192
vn 0.612107 -0.230254 0.756511
vn 0.735969 0.092279 0.670697
vn 0.747918 0.570962 0.338557
vn -0.994105 0.009089 0.108039
vn 0.978194 -0.044951 0.202770
vn 0.175527 0.656034 0.734037
vn -0.370846 -0.917570 -0.143314
vn 0.928092 -0.345781 0.138132
vn 0.361649 -0.871376 0.331534
vn 0.314355 0.726415 0.611149
vn -0.755503 -0.495355 0.428764
vn 0.074671 0.708484 0.701765
vn -0.111379 -0.950236 -0.290940
vn -0.853563 0.457743 0.248801
vn 0.131810 0.661068 0.738658
vn 0.006050 0.949430 0.313921
vn -0.171276 0.788411 0.590823
vn 0.105849 0.735666 0.669023
vn -0.998284 0.027258 0.051836
vn 0.389220 0.840476 0.376973
vn -0.989138 -0.116883 0.089128
vn -0.497608 -0.852721 -0.158916
vn 0.136410 0.900323 0.413293
vn 0.951938 -0.306274 0.003316
vn -0.918839 0.380074 0.106197
vn 0.915530 -0.399314 0.048504
vn -0.241389 -0.936929 -0.252774
vn -0.244819 0.934706 0.257659
vn 0.205204 0.732072 0.649586
vn -0.885197 0.457485 0.084461
vn 0.997956 0.042019 0.048149
vn -0.261447 -0.930283 -0.257330
vn -0.686733 0.687055 -0.237389
vn 0.836551 0.459007 0.299156
vn -0.724037 0.459727 -0.514220
vn -0.917909 0.282310 -0.278827
vn -0.996521 -0.070479 0.044478
vn -0.492194 -0.839592 -0.229848
vn -0.191154 -0.938352 -0.288020
vn 0.972217 -0.164235 -0.166795
vn 0.088884 -0.926128 -0.366589
vn 0.863354 0.454745 0.218695
vn -0.601303 0.721603 -0.343109
vn 0.072405 0.969505 0.234130
vn -0.699159 0.466276 -0.542000
vn 0.002849 0.987010 0.160635
vn 0.944045 -0.326491 -0.046728
vn 0.659429 -0.706218 -0.257700
vn 0.751871 0.659087 0.017169
vn -0.248691 -0.931575 -0.265181
vn -0.000454 -0.928359 -0.371685
vn 0.299495 0.939583 0.165788
vn 0.604948 0.753851 0.256410
vn 0.050834 0.980745 -0.188563
vn 0.950085 -0.311914 -0.006974
vn -0.576650 0.436991 -0.690299
vn 0.345815 0.637798 -0.688205
vn 0.045091 -0.919758 -0.389887
vn -0.205579 -0.925834 -0.317125
vn -0.996457 -0.005755 -0.083909
vn -0.189340 0.762382 -0.618809
vn 0.093052 0.803138 -0.588481
vn 0.834418 0.472608 -0.283527
vn 0.393461 0.374315 -0.839688
vn -0.733973 0.416965 -0.536119
vn 0.256197 0.505848 -0.823699
vn -0.538622 0.508566 -0.671749
vn 0.955308 0.014956 -0.295232
vn -0.036261 0.526091 -0.849655
vn 0.917312 -0.249072 -0.310647
vn 0.048580 0.613343 -0.788321
vn -0.673769 0.435333 -0.597094
vn -0.106386 -0.841866 -0.529097
vn -0.457784 0.385981 -0.800907
vn -0.103699 0.325976 -0.939674
vn -0.290924 -0.906052 -0.307299
vn 0.015824 -0.915042 -0.403049
vn -0.548216 0.280450 -0.787913
vn 0.244505 -0.881767 -0.403366
vn -0.099829 0.328195 -0.939320
vn -0.239645 0.311993 -0.919364
vn -0.252674 0.249928 -0.934715
vn -0.035860 -0.925083 -0.378068
vn 0.853015 -0.023938 -0.521336
vn 0.617842 0.124201 -0.776431
vn 0.047602 0.458481 -0.887428
vn 0.706422 -0.488013 -0.512651
vn -0.003592 0.255401 -0.966829
vn -0.242832 -0.875710 -0.417331
vn -0.318545 -0.434021 -0.842707
vn 0.205657 0.394769 -0.895468
vn -0.144370 0.185679 -0.971947
vn -0.043654 0.254685 -0.966038
vn 0.121916 -0.749703 -0.650448
vn -0.087729 0.319731 -0.943438
vn 0.050462 0.163187 -0.985304
vn 0.330077 0.359717 -0.872727
vn -0.163794 -0.704228 -0.690822
vn -0.025070 -0.121218 -0.992309
vn -0.015810 0.120864 -0.992543
# 139 normals

usemtl default
f 2/1/2 4/2/4 1/3/1
f 2/1/2 8/4/8 4/2/4
f 3/5/3 8/4/8 2/1/2
f 7/6/7 12/7/12 1/3/1
f 1/3/1 12/7/12 2/1/2
f 5/8/5 3/5/3 2/1/2
f 4/2/4 14/9/14 9/10/9
f 3/5/3 5/8/5 13/11/13
f 14/9/14 4/2/4 6/12/6
f 4/2/4 8/4/8 6/12/6
f 13/11/13 8/4/8 3/5/3
f 1/3/1 4/2/4 7/6/7
f 12/7/12 10/13/10 2/1/2
f 9/10/9 11/14/11 4/2/4
f 2/1/2 10/13/10 5/8/5
f 6/15/6 8/16/8 15/17/15
f 54/18/54 20/19/20 12/7/12
f 54/18/54 12/7/12 7/6/7
f 18/20/18 13/11/13 5/8/5
f 20/19/20 17/21/17 12/7/12
f 23/22/23 6/15/6 15/17/15
f 8/16/8 16/23/16 15/17/15
f 8/16/8 26/24/26 16/23/16
f 17/21/17 10/13/10 12/7/12
f 27/25/27 18/20/18 5/8/5
f 13/26/13 26/27/26 8/28/8
f 17/21/17 19/29/19 10/13/10
f 10/13/10 27/25/27 5/8/5
f 20/19/20 21/30/21 17/21/17
f 7/6/7 4/2/4 25/31/25
f 22/32/22 27/25/27 10/13/10
f 23/22/23 14/33/14 6/15/6
f 10/13/10 19/29/19 22/32/22
f 13/26/13 50/34/50 26/27/26
f 17/21/17 24/35/24 19/29/19
f 11/14/11 38/36/38 36/37/36
f 54/18/54 30/38/30 20/19/20
f 4/2/4 11/14/11 40/39/40
f 22/32/22 19/29/19 24/35/24
f 21/30/21 24/35/24 17/21/17
f 35/40/35 9/41/9 14/33/14
f 15/17/15 39/42/39 23/22/23
f 25/31/25 45/43/45 7/6/7
f 18/44/18 27/45/27 28/46/28
f 50/34/50 13/26/13 18/44/18
f 29/47/29 11/48/11 9/41/9
f 29/47/29 38/49/38 11/48/11
f 27/45/27 43/50/43 28/46/28
f 21/30/21 20/19/20 30/38/30
f 27/45/27 31/51/31 43/50/43
f 25/31/25 37/52/37 45/43/45
f 14/33/14 23/22/23 35/40/35
f 33/53/33 22/32/22 24/35/24
f 22/32/22 31/54/31 27/25/27
f 21/30/21 32/55/32 24/35/24
f 50/56/50 46/57/46 26/24/26
f 32/55/32 21/30/21 30/38/30
f 25/31/25 4/2/4 41/58/41
f 4/2/4 40/39/40 41/58/41
f 46/57/46 16/23/16 26/24/26
f 15/17/15 16/23/16 66/59/66
f 32/55/32 33/53/33 24/35/24
f 50/34/50 18/44/18 28/46/28
f 11/14/11 36/37/36 40/39/40
f 33/53/33 31/54/31 22/32/22
f 15/17/15 66/59/66 39/42/39
f 46/57/46 71/60/71 16/23/16
f 37/52/37 25/31/25 41/58/41
f 33/61/33 34/62/34 31/51/31
f 43/50/43 31/51/31 34/62/34
f 35/40/35 29/47/29 9/41/9
f 29/47/29 35/40/35 23/22/23
f 29/47/29 23/22/23 39/42/39
f 32/55/32 30/38/30 51/63/51
f 44/64/44 41/65/41 40/66/40
f 38/36/38 48/67/48 36/37/36
f 33/61/33 53/68/53 34/62/34
f 45/43/45 37/52/37 49/69/49
f 50/56/50 61/70/61 46/57/46
f 36/71/36 47/72/47 40/66/40
f 32/73/32 51/74/51 56/75/56
f 30/38/30 54/18/54 51/63/51
f 37/76/37 42/77/42 49/78/49
f 42/77/42 37/76/37 41/65/41
f 34/62/34 58/79/58 43/50/43
f 44/64/44 40/66/40 47/72/47
f 29/47/29 48/80/48 38/49/38
f 7/6/7 45/43/45 54/18/54
f 33/81/33 32/73/32 56/75/56
f 39/42/39 66/59/66 29/47/29
f 41/65/41 44/64/44 73/82/73
f 28/46/28 60/83/60 50/34/50
f 28/46/28 43/50/43 60/83/60
f 52/84/52 48/80/48 29/47/29
f 49/69/49 54/18/54 45/43/45
f 54/18/54 57/85/57 51/63/51
f 36/71/36 48/86/48 47/72/47
f 42/77/42 41/65/41 73/82/73
f 54/18/54 49/69/49 68/87/68
f 53/88/53 33/81/33 56/75/56
f 66/59/66 52/84/52 29/47/29
f 48/86/48 65/89/65 47/72/47
f 48/80/48 80/90/80 65/91/65
f 50/34/50 60/83/60 61/92/61
f 63/93/63 47/72/47 65/89/65
f 56/75/56 51/74/51 55/94/55
f 57/95/57 55/94/55 51/74/51
f 70/96/70 73/82/73 44/64/44
f 54/18/54 68/87/68 57/85/57
f 67/97/67 53/88/53 56/75/56
f 80/90/80 48/80/48 52/84/52
f 58/79/58 76/98/76 43/50/43
f 67/97/67 56/75/56 55/94/55
f 60/83/60 43/50/43 76/98/76
f 66/59/66 78/99/78 52/84/52
f 49/100/49 59/101/59 68/102/68
f 68/102/68 62/103/62 57/95/57
f 46/57/46 61/70/61 71/60/71
f 16/23/16 71/60/71 66/59/66
f 47/72/47 70/96/70 44/64/44
f 70/96/70 47/72/47 94/104/94
f 42/77/42 73/82/73 81/105/81
f 60/83/60 76/98/76 61/92/61
f 34/62/34 53/68/53 64/106/64
f 67/107/67 72/108/72 69/109/69
f 67/107/67 69/109/69 53/68/53
f 94/104/94 47/72/47 63/93/63
f 55/94/55 57/95/57 83/110/83
f 83/110/83 57/95/57 62/103/62
f 67/97/67 55/94/55 85/111/85
f 58/79/58 34/62/34 64/106/64
f 69/109/69 64/106/64 53/68/53
f 76/98/76 77/112/77 61/92/61
f 61/70/61 77/113/77 71/60/71
f 85/111/85 82/114/82 67/97/67
f 72/108/72 74/115/74 69/109/69
f 82/114/82 72/116/72 67/97/67
f 69/109/69 74/115/74 64/106/64
f 71/60/71 89/117/89 66/59/66
f 72/108/72 82/118/82 74/115/74
f 85/111/85 55/94/55 83/110/83
f 42/119/42 92/120/92 49/100/49
f 64/106/64 75/121/75 58/79/58
f 68/102/68 83/110/83 62/103/62
f 42/119/42 88/122/88 92/120/92
f 66/59/66 89/117/89 78/99/78
f 94/104/94 79/123/79 70/96/70
f 58/79/58 75/121/75 99/124/99
f 64/106/64 74/115/74 75/121/75
f 73/82/73 70/96/70 81/105/81
f 99/124/99 76/98/76 58/79/58
f 80/90/80 87/125/87 65/91/65
f 77/113/77 115/126/115 71/60/71
f 78/99/78 90/127/90 52/84/52
f 81/105/81 70/96/70 102/128/102
f 59/101/59 49/100/49 92/120/92
f 42/77/42 81/105/81 88/129/88
f 86/130/86 63/93/63 65/89/65
f 107/131/107 70/96/70 79/123/79
f 65/89/65 87/132/87 86/130/86
f 102/128/102 70/96/70 107/131/107
f 52/84/52 90/127/90 80/90/80
f 115/126/115 89/117/89 71/60/71
f 83/110/83 68/102/68 59/101/59
f 82/118/82 84/133/84 74/115/74
f 75/121/75 74/115/74 104/134/104
f 76/98/76 99/124/99 77/112/77
f 94/104/94 63/93/63 86/130/86
f 92/120/92 91/135/91 59/101/59
f 104/134/104 74/115/74 111/136/111
f 122/137/122 90/127/90 78/99/78
f 91/135/91 83/110/83 59/101/59
f 88/129/88 81/105/81 102/128/102
f 75/121/75 104/134/104 99/124/99
f 97/138/97 80/90/80 90/127/90
f 91/135/91 101/139/101 83/110/83
f 97/138/97 87/125/87 80/90/80
f 111/136/111 74/115/74 84/133/84
f 100/140/100 82/114/82 85/111/85
f 92/120/92 88/122/88 96/141/96
f 83/110/83 93/142/93 85/111/85
f 101/139/101 93/142/93 83/110/83
f 93/142/93 100/140/100 85/111/85
f 91/135/91 96/141/96 101/139/101
f 92/120/92 96/141/96 91/135/91
f 84/133/84 95/143/95 111/136/111
f 82/118/82 100/144/100 84/133/84
f 79/123/79 94/104/94 86/130/86
f 89/117/89 98/145/98 78/99/78
f 88/122/88 102/146/102 96/141/96
f 100/144/100 106/147/106 84/133/84
f 98/145/98 122/137/122 78/99/78
f 93/148/93 110/149/110 100/150/100
f 107/131/107 79/123/79 109/151/109
f 101/152/101 110/149/110 93/148/93
f 108/153/108 106/154/106 100/150/100
f 101/152/101 96/155/96 125/156/125
f 108/153/108 100/150/100 110/149/110
f 125/156/125 96/155/96 105/157/105
f 99/124/99 115/158/115 77/112/77
f 102/159/102 105/157/105 96/155/96
f 118/160/118 87/125/87 97/138/97
f 110/149/110 101/152/101 125/156/125
f 103/161/103 102/128/102 107/131/107
f 87/132/87 109/151/109 86/130/86
f 123/162/123 107/131/107 109/151/109
f 106/147/106 95/143/95 84/133/84
f 103/163/103 105/157/105 102/159/102
f 79/123/79 86/130/86 109/151/109
f 90/127/90 118/160/118 97/138/97
f 95/164/95 106/154/106 108/153/108
f 99/124/99 104/134/104 117/165/117
f 103/163/103 130/166/130 105/157/105
f 114/167/114 95/164/95 108/153/108
f 90/127/90 116/168/116 118/160/118
f 99/124/99 117/165/117 115/158/115
f 98/145/98 112/169/112 122/137/122
f 87/132/87 118/170/118 109/151/109
f 123/162/123 103/161/103 107/131/107
f 125/156/125 108/153/108 110/149/110
f 103/163/103 136/171/136 130/166/130
f 111/172/111 95/164/95 113/173/113
f 111/172/111 113/173/113 121/174/121
f 113/173/113 95/164/95 114/167/114
f 116/168/116 90/127/90 122/137/122
f 124/175/124 136/171/136 103/163/103
f 104/134/104 111/136/111 117/165/117
f 115/126/115 128/176/128 89/117/89
f 125/156/125 105/157/105 130/166/130
f 124/177/124 103/161/103 123/162/123
f 128/176/128 98/145/98 89/117/89
f 114/167/114 108/153/108 119/178/119
f 108/153/108 125/156/125 119/178/119
f 126/179/126 123/162/123 109/151/109
f 118/170/118 126/179/126 109/151/109
f 128/176/128 112/169/112 98/145/98
f 111/172/111 121/174/121 117/180/117
f 113/173/113 114/167/114 121/174/121
f 114/167/114 119/178/119 121/174/121
f 121/174/121 119/178/119 120/181/120
f 117/180/117 121/174/121 120/181/120
f 133/182/133 118/160/118 116/168/116
f 120/181/120 119/178/119 134/183/134
f 112/169/112 116/168/116 122/137/122
f 126/179/126 124/177/124 123/162/123
f 134/183/134 119/178/119 125/156/125
f 117/180/117 120/181/120 129/184/129
f 117/185/117 129/186/129 115/126/115
f 125/156/125 130/166/130 132/187/132
f 134/183/134 125/156/125 127/188/127
f 129/184/129 120/181/120 134/183/134
f 115/126/115 129/186/129 128/176/128
f 133/182/133 126/189/126 118/160/118
f 133/182/133 116/168/116 112/169/112
f 133/190/133 124/175/124 126/191/126
f 132/187/132 127/188/127 125/156/125
f 129/186/129 112/169/112 128/176/128
f 129/184/129 134/183/134 131/192/131
f 138/193/138 133/182/133 112/169/112
f 127/188/127 138/194/138 139/195/139
f 133/190/133 136/171/136 124/175/124
f 139/195/139 129/184/129 131/192/131
f 139/195/139 134/183/134 127/188/127
f 129/186/129 137/196/137 112/169/112
f 130/166/130 135/197/135 132/187/132
f 138/194/138 127/188/127 132/187/132
f 134/183/134 139/195/139 131/192/131
f 137/198/137 129/184/129 139/195/139
f 130/166/130 136/171/136 135/197/135
f 133/190/133 135/197/135 136/171/136
f 137/196/137 138/193/138 112/169/112
f 138/194/138 135/197/135 133/190/133
f 137/198/137 139/195/139 138/194/138
f 138/194/138 132/187/132 135/197/135

# 274 faces
